<?xml version="1.0" encoding="UTF-8" standalone="no"?>
<!-- Created with Inkscape (http://www.inkscape.org/) -->

<svg
   xmlns:dc="http://purl.org/dc/elements/1.1/"
   xmlns:cc="http://creativecommons.org/ns#"
   xmlns:rdf="http://www.w3.org/1999/02/22-rdf-syntax-ns#"
   xmlns:svg="http://www.w3.org/2000/svg"
   xmlns="http://www.w3.org/2000/svg"
   version="1.1"
   width="210mm"
   height="297mm"
   id="svg4883">
  <defs
     id="defs3" />
  <metadata
     id="metadata4">
    <rdf:RDF>
      <cc:Work
         rdf:about="">
        <dc:format>image/svg+xml</dc:format>
        <dc:type
           rdf:resource="http://purl.org/dc/dcmitype/StillImage" />
        <dc:title></dc:title>
      </cc:Work>
    </rdf:RDF>
  </metadata>
  <g
     id="layer1">
    <path
       d="m 248.5625,77.5625 c -88.88918,0 -160.5,66.49619 -160.5,149.09375 0,56.40144 33.39304,105.26257 82.875,130.59375 l 0,21.78125 c 0,69.73063 41.89433,129.59999 102.65625,157.34375 C 239.97341,556.85758 219.5,583.93306 219.5,613.78125 c 0,32.30033 23.95523,61.37738 62.625,82.34375 C 320.79477,717.09137 374.21613,730 433.40625,730 l 10.3125,0 C 502.90887,730 556.33023,717.09137 595,696.125 c 38.66977,-20.96637 62.65625,-50.04342 62.65625,-82.34375 0,-32.30032 -23.98648,-61.34613 -62.65625,-82.3125 -30.66859,-16.62821 -70.63023,-28.20125 -115.375,-32.28125 30.65272,-31.17187 49.4375,-73.46131 49.4375,-120.15625 l 0,-39.03125 c 0,-80.06992 -55.22127,-147.153 -130.84375,-167.5 C 374.97552,116.82978 316.8728,77.5625 248.5625,77.5625 z m 0,1 c 67.64783,0 125.16353,38.69372 148.4375,93.625 -14.97145,-3.91771 -30.72013,-6.03125 -47,-6.03125 -99.18905,0 -179.0625,77.53888 -179.0625,173.84375 l 0,16.15625 c -48.92244,-25.23329 -81.875,-73.66746 -81.875,-129.5 0,-82.01958 71.10918,-148.09375 159.5,-148.09375 z M 350,167.15625 c 16.44731,0 32.37101,2.14265 47.46875,6.15625 6.83931,16.5371 10.59375,34.52129 10.59375,53.34375 0,82.01958 -71.10918,148.0625 -159.5,148.0625 -27.81511,0 -53.90989,-6.54277 -76.625,-18.0625 l 0,-16.65625 c 0,-95.75195 79.39441,-172.84375 178.0625,-172.84375 z m 48.6875,6.46875 c 74.84993,20.45546 129.375,87.0132 129.375,166.375 l 0,39.03125 c 0,46.72632 -18.92302,89.01386 -49.75,120.0625 -11.2595,-0.98766 -22.80568,-1.53125 -34.59375,-1.53125 l -10.3125,0 c -59.19012,0 -112.61148,12.93988 -151.28125,33.90625 -2.56973,1.39328 -5.06294,2.81803 -7.5,4.28125 C 213.86378,508.29147 171.9375,448.5988 171.9375,379.03125 l 0,-21.25 c 22.74509,11.44541 48.84713,17.9375 76.625,17.9375 88.88918,0 160.5,-66.46494 160.5,-149.0625 0,-18.69413 -3.66848,-36.57094 -10.375,-53.03125 z m 34.71875,324.9375 10.3125,0 c 11.47456,0 22.71428,0.49831 33.6875,1.4375 -32.28412,32.04406 -77.35816,51.875 -127.40625,51.875 -26.55284,0 -51.6918,-5.59758 -74.28125,-15.625 2.24514,-1.3371 4.54759,-2.62741 6.90625,-3.90625 38.4816,-20.86434 91.73662,-33.78125 150.78125,-33.78125 z m 45.28125,1.5625 c 44.97178,4.00143 85.13252,15.56743 115.84375,32.21875 38.4816,20.86434 62.125,49.63211 62.125,81.4375 0,31.80539 -23.6434,60.6044 -62.125,81.46875 -38.4816,20.86435 -91.76787,33.75 -150.8125,33.75 l -10.3125,0 C 374.36162,729 321.1066,716.11435 282.625,695.25 244.1434,674.38565 220.5,645.58664 220.5,613.78125 c 0,-29.55538 20.42004,-56.50143 54.1875,-76.90625 22.87618,10.26137 48.37368,16 75.3125,16 50.60883,0 96.17929,-20.18518 128.6875,-52.75 z M 245.71875,709 c -51.52336,0 -98.02302,12.45756 -131.6875,32.65625 C 80.366768,761.85494 59.5,789.84816 59.5,820.9375 c 0,31.08934 20.866768,59.08256 54.53125,79.28125 33.66448,20.19869 80.16414,32.65625 131.6875,32.65625 51.52336,0 98.02302,-12.45756 131.6875,-32.65625 33.66448,-20.19869 54.53125,-48.19191 54.53125,-79.28125 0,-31.08934 -20.86677,-59.08256 -54.53125,-79.28125 C 343.74177,721.45756 297.24211,709 245.71875,709 z m 0,1 c 51.36235,0 97.71627,12.41726 131.1875,32.5 33.47123,20.08274 54.03125,47.79541 54.03125,78.4375 0,30.64209 -20.56002,58.35476 -54.03125,78.4375 -33.47123,20.08274 -79.82515,32.5 -131.1875,32.5 -51.36235,0 -97.71627,-12.41726 -131.1875,-32.5 C 81.06002,879.29226 60.5,851.57959 60.5,820.9375 60.5,790.29541 81.06002,762.58274 114.53125,742.5 148.00248,722.41726 194.3564,710 245.71875,710 z"
       id="rect4889"
       style="font-size:medium;font-style:normal;font-variant:normal;font-weight:normal;font-stretch:normal;text-indent:0;text-align:start;text-decoration:none;line-height:normal;letter-spacing:normal;word-spacing:normal;text-transform:none;direction:ltr;block-progression:tb;writing-mode:lr-tb;text-anchor:start;baseline-shift:baseline;color:#000000;fill:#000000;fill-opacity:1;stroke:none;stroke-width:1;marker:none;visibility:visible;display:inline;overflow:visible;enable-background:accumulate;font-family:Sans;-inkscape-font-specification:Sans" />
  </g>
</svg>
