<?xml version="1.0" encoding="UTF-8" standalone="no"?>
<!-- Generator: Adobe Illustrator 16.0.0, SVG Export Plug-In . SVG Version: 6.00 Build 0)  -->

<svg
   xmlns:dc="http://purl.org/dc/elements/1.1/"
   xmlns:cc="http://creativecommons.org/ns#"
   xmlns:rdf="http://www.w3.org/1999/02/22-rdf-syntax-ns#"
   xmlns:svg="http://www.w3.org/2000/svg"
   xmlns="http://www.w3.org/2000/svg"
   xmlns:xlink="http://www.w3.org/1999/xlink"
   xmlns:sodipodi="http://sodipodi.sourceforge.net/DTD/sodipodi-0.dtd"
   xmlns:inkscape="http://www.inkscape.org/namespaces/inkscape"
   version="1.2"
   id="Layer_1"
   x="0px"
   y="0px"
   width="302.4px"
   height="288px"
   viewBox="0 0 302.4 288"
   xml:space="preserve"
   inkscape:version="0.48.2 r9819"
   sodipodi:docname="fat.svg"><metadata
   id="metadata87"><rdf:RDF><cc:Work
       rdf:about=""><dc:format>image/svg+xml</dc:format><dc:type
         rdf:resource="http://purl.org/dc/dcmitype/StillImage" /></cc:Work></rdf:RDF></metadata><defs
   id="defs85"><linearGradient
   inkscape:collect="always"
   id="linearGradient4035"><stop
     style="stop-color:#ffffff;stop-opacity:1;"
     offset="0"
     id="stop4037" /><stop
     style="stop-color:#ffffff;stop-opacity:0;"
     offset="1"
     id="stop4039" /></linearGradient>
	
	
	
<linearGradient
   inkscape:collect="always"
   xlink:href="#linearGradient4035"
   id="linearGradient4041"
   x1="47.596"
   y1="204.068"
   x2="268.056"
   y2="204.068"
   gradientUnits="userSpaceOnUse" /></defs><sodipodi:namedview
   pagecolor="#ffffff"
   bordercolor="#666666"
   borderopacity="1"
   objecttolerance="10"
   gridtolerance="10"
   guidetolerance="10"
   inkscape:pageopacity="0"
   inkscape:pageshadow="2"
   inkscape:window-width="751"
   inkscape:window-height="480"
   id="namedview83"
   showgrid="false"
   inkscape:zoom="0.81944444"
   inkscape:cx="151.2"
   inkscape:cy="144"
   inkscape:window-x="0"
   inkscape:window-y="0"
   inkscape:window-maximized="0"
   inkscape:current-layer="Layer_1" />
<g
   id="g49"
   transform="matrix(-1,0,0,1,315.652,0)"
   style="fill:#ffffff;fill-opacity:1;stroke:#ffffff;stroke-opacity:1">
		<g
   id="g51"
   style="fill:#ffffff;fill-opacity:1;stroke:#ffffff;stroke-opacity:1">
			<path
   inkscape:connector-curvature="0"
   id="path53"
   d="m 54.033,200.118 c 0.072,-3 0.146,-7.684 -0.219,-10.535 -0.879,-6.291 -5.635,-3.365 -5.635,-7.391 0,-2.781 3.219,-3.951 5.561,-3.951 1.902,0 15.072,0.732 21.145,0.732 1.465,0 16.17,-0.732 17.193,-0.732 2.852,0 5.854,5.779 5.854,10.756 0,2.486 -1.17,5.047 -3.951,5.047 -5.047,0 -2.414,-7.533 -16.459,-7.533 -4.465,0 -6.367,-0.365 -6.367,10.242 0,1.316 0.072,2.561 4.314,2.561 5.637,0 2.053,-6.73 7.17,-6.73 4.17,0 4.465,7.973 4.465,10.828 0,3.438 -0.365,12.289 -5.342,12.289 -4.682,0 0.148,-8.264 -7.682,-8.264 -3.219,0 -2.779,0.582 -2.854,8.119 -0.291,10.828 7.098,4.828 7.098,10.389 0,1.684 0.658,4.902 -17.121,4.902 -11.705,0 -13.607,-1.682 -13.607,-4.828 0,-4.096 3.949,-2.195 5.488,-6.074 0.73,-2.049 0.949,-7.242 0.949,-9.656 v -10.171 z"
   style="fill:#ffffff;fill-opacity:1;stroke:#ffffff;stroke-opacity:1" />
		</g>
		<g
   id="g55"
   style="fill:#ffffff;fill-opacity:1;stroke:#ffffff;stroke-opacity:1">
			<path
   inkscape:connector-curvature="0"
   id="path57"
   d="m 102.691,230.846 c -4.904,0 -8.852,-3.953 -8.852,-8.855 0,-4.902 3.947,-8.852 8.852,-8.852 4.902,0 8.854,3.949 8.854,8.852 0,4.903 -3.951,8.855 -8.854,8.855 z"
   style="fill:#ffffff;fill-opacity:1;stroke:#ffffff;stroke-opacity:1" />
			<path
   inkscape:connector-curvature="0"
   id="path59"
   d="m 129.178,203.409 c 2.268,-5.049 5.268,-11.486 5.268,-17.268 0,-5.045 2.342,-8.852 8.854,-8.852 6.364,0 10.389,6.51 13.241,11.34 1.244,2.123 12.291,24.51 14.924,30.51 2.414,5.561 6.367,2.195 6.367,6.365 0,5.342 -10.389,5.121 -14.049,5.121 -10.462,0 -16.751,-0.074 -16.751,-4.609 0,-3.512 4.461,-2.195 4.461,-4.754 0,-3.295 -1.829,-3.588 -13.607,-3.588 -3.807,0 -6.074,0.146 -6.074,3.732 0,2.854 4.684,0.951 4.684,4.756 0,4.389 -7.9,4.463 -10.826,4.463 -10.465,0 -11.416,-1.977 -11.416,-4.318 0,-3.438 3.951,-2.414 6.072,-5.045 1.609,-1.977 3.146,-5.488 4.244,-7.83 l 4.608,-10.023 z m 15.364,5.267 c 0.733,0 2.927,0.146 2.927,-0.951 0,-1.097 -2.123,-4.9 -2.705,-5.926 -0.659,-1.172 -1.904,-3.877 -3.514,-3.877 -1.754,0 -2.999,4.389 -3.293,5.195 -0.293,0.803 -1.537,3.658 -1.537,4.535 0,1.244 1.831,1.023 2.633,1.023 h 5.489 z"
   style="fill:#ffffff;fill-opacity:1;stroke:#ffffff;stroke-opacity:1" />
			<path
   inkscape:connector-curvature="0"
   id="path61"
   d="m 189.323,230.846 c -4.902,0 -8.852,-3.953 -8.852,-8.855 0,-4.902 3.949,-8.852 8.852,-8.852 4.903,0 8.852,3.949 8.852,8.852 0,4.903 -3.949,8.855 -8.852,8.855 z"
   style="fill:#ffffff;fill-opacity:1;stroke:#ffffff;stroke-opacity:1" />
		</g>
		<g
   id="g63"
   style="fill:#ffffff;fill-opacity:1;stroke:#ffffff;stroke-opacity:1">
			<path
   inkscape:connector-curvature="0"
   id="path65"
   d="m 237.319,178.754 c 3.145,0 4.609,-0.293 5.705,-0.514 1.027,-0.291 1.611,-0.512 3.002,-0.512 2.854,0 8.779,5.637 8.779,13.535 0,3.658 -1.902,6.074 -5.635,6.074 -6.365,0 -6.291,-8.633 -10.023,-8.633 -2.852,0 -2.561,3.949 -2.561,4.535 V 215.7 c 0,8.707 6.73,4.537 6.73,9.66 0,2.268 -1.389,5.486 -15.07,5.486 -3.73,0 -17.414,0.148 -17.414,-5.486 0,-3.877 4.535,-2.342 6,-5.123 0.732,-1.537 1.025,-5.926 1.1,-7.754 l 0.584,-16.17 c 0.293,-7.682 -1.244,-7.607 -2.268,-7.607 -3.293,0 -4.904,8.633 -10.828,8.633 -2.854,0 -4.539,-2.635 -4.539,-5.27 0,-6.219 5.268,-14.34 9.441,-14.34 0.51,0 1.316,0.221 2.707,0.512 1.389,0.221 3.365,0.514 6.291,0.514 h 17.999 z"
   style="fill:#ffffff;fill-opacity:1;stroke:#ffffff;stroke-opacity:1" />
		</g>
		<path
   inkscape:connector-curvature="0"
   id="path67"
   d="m 259.202,230.846 c -4.902,0 -8.852,-3.953 -8.852,-8.855 0,-4.902 3.949,-8.852 8.852,-8.852 4.9,0 8.854,3.949 8.854,8.852 0,4.903 -3.953,8.855 -8.854,8.855 z"
   style="fill:#ffffff;fill-opacity:1;stroke:#ffffff;stroke-opacity:1" />
	</g><g
   id="g69">
		<path
   style="fill:#fff200"
   inkscape:connector-curvature="0"
   id="path71"
   d="M 138.864,169.7 H 58.156 c -13.575,0 -24.579,-11.004 -24.579,-24.576 0,-13.579 11.004,-24.582 24.579,-24.582 0,0 6.272,-0.599 11.007,2.563 l 69.701,46.595" />
		<path
   style="fill:#ec008c"
   inkscape:connector-curvature="0"
   id="path73"
   d="M 135.181,160.774 65.134,113.947 C 53.723,106.596 50.431,91.385 57.782,79.975 65.134,68.564 80.344,65.272 91.755,72.621 c 0,0 5.599,2.891 7.867,8.117 l 35.559,80.036" />
		<path
   style="fill:#fff200"
   inkscape:connector-curvature="0"
   id="path75"
   d="m 100.517,70.692 35.461,79.568 10.394,-77.386 c -1.756,-6.016 -8.516,-6.973 -8.516,-6.973 l -0.202,-1.659 10.477,-0.149 V 61.21 c 0,-13.57 -11.001,-24.573 -24.572,-24.573 -13.57,0 -24.572,11.003 -24.572,24.573 -0.002,0 -0.451,1.921 1.53,9.482 z" />
		<path
   style="fill:#ec008c"
   inkscape:connector-curvature="0"
   id="path77"
   d="m 163.536,169.7 h 80.709 c 13.574,0 24.578,-11.004 24.578,-24.576 0,-13.579 -11.004,-24.582 -24.578,-24.582 0,0 -6.271,-0.599 -11.008,2.563 L 163.536,169.7" />
		<path
   style="fill:#fff200"
   inkscape:connector-curvature="0"
   id="path79"
   d="m 167.22,160.774 70.047,-46.827 c 11.412,-7.351 14.703,-22.562 7.352,-33.972 -7.352,-11.411 -22.561,-14.703 -33.973,-7.354 0,0 -5.598,2.891 -7.865,8.117 l -35.561,80.036" />
		<path
   style="fill:#ec008c"
   inkscape:connector-curvature="0"
   id="path81"
   d="M 201.886,70.692 166.423,150.26 154.271,64.092 V 61.21 c 0,-13.57 11.002,-24.573 24.572,-24.573 13.57,0 24.572,11.003 24.572,24.573 0,0 0.449,1.921 -1.529,9.482 z" />
	</g>
</svg>